<?xml version="1.0" standalone="no"?>
<!DOCTYPE svg PUBLIC "-//W3C//DTD SVG 20010904//EN"
 "http://www.w3.org/TR/2001/REC-SVG-20010904/DTD/svg10.dtd">
<svg version="1.0" xmlns="http://www.w3.org/2000/svg"
 width="680.000000pt" height="680.000000pt" viewBox="0 0 680.000000 680.000000"
 preserveAspectRatio="xMidYMid meet">
<metadata>
Created by potrace 1.14, written by Peter Selinger 2001-2017
</metadata>
<g transform="translate(0.000000,680.000000) scale(0.100000,-0.100000)"
fill="#000000" stroke="none">
<path d="M3299 6155 c-2 -1 -35 -6 -74 -9 -38 -4 -81 -9 -95 -11 -14 -2 -45
-7 -70 -10 -25 -4 -94 -18 -155 -31 -60 -14 -117 -27 -126 -29 -76 -16 -416
-143 -463 -172 -6 -4 -15 -8 -21 -9 -5 -1 -43 -20 -84 -43 -41 -23 -78 -41
-82 -41 -5 0 -9 -4 -9 -10 0 -5 -5 -10 -11 -10 -17 0 -196 -119 -299 -199
-603 -470 -984 -1161 -1057 -1918 -10 -101 -10 -449 0 -533 15 -128 19 -156
34 -230 8 -41 17 -86 19 -100 3 -14 7 -33 10 -42 3 -9 7 -26 9 -37 9 -39 14
-56 38 -136 26 -85 113 -312 126 -330 4 -5 14 -26 21 -45 21 -52 133 -251 192
-338 110 -165 202 -276 358 -432 151 -151 284 -257 466 -372 95 -60 269 -157
294 -163 3 -1 28 -12 55 -24 112 -51 357 -138 441 -156 243 -52 249 -53 404
-70 106 -12 515 -13 565 -2 11 2 47 8 80 12 283 37 573 125 830 250 172 85
225 114 333 187 391 263 708 617 921 1029 162 312 256 626 298 994 15 136 8
572 -12 645 -2 8 -6 38 -10 65 -12 96 -58 281 -105 425 -59 179 -67 200 -157
381 -131 262 -296 491 -510 706 -311 313 -684 542 -1105 678 -62 20 -120 38
-128 40 -8 2 -33 8 -55 13 -22 6 -51 13 -65 16 -14 3 -50 10 -80 16 -30 6 -66
13 -80 14 -14 2 -47 7 -75 11 -27 4 -61 9 -75 12 -28 5 -486 13 -491 8z"/>
</g>
</svg>
